<svg xmlns="http://www.w3.org/2000/svg" fill="none" viewBox="0 0 512 512"><path fill="#fff" d="M0 0h512v512H0z"/><path fill="#000" d="M124.5 341v-54.5h20c3.9 0 7 .6 9.6 1.9a13.1 13.1 0 0 1 7.6 12.4 12 12 0 0 1-1.3 5.7c-.8 1.6-2 2.8-3.3 3.8-1.4.9-3 1.6-4.6 2v.5a12.5 12.5 0 0 1 9.6 6.3c1.2 2 1.7 4.4 1.7 7.2s-.6 5.3-2 7.5c-1.2 2.2-3.2 4-6 5.3-2.7 1.3-6.2 1.9-10.4 1.9h-20.9Zm8.2-7h12c3.9 0 6.7-.8 8.4-2.3a7.4 7.4 0 0 0 2.6-5.8 9 9 0 0 0-5-8.2 12 12 0 0 0-5.8-1.2h-12.2v17.4Zm0-24h11c2 0 3.6-.3 5-1a8.7 8.7 0 0 0 3.6-3 8 8 0 0 0 1.3-4.6c0-2.2-.8-4.1-2.3-5.6-1.6-1.6-4-2.3-7.3-2.3h-11.3V310Zm40.3 31v-41h8v41h-8Zm4-47.2a5 5 0 0 1-3.6-1.4c-1-1-1.5-2-1.5-3.4 0-1.3.5-2.4 1.5-3.3a5 5 0 0 1 3.6-1.4 5 5 0 0 1 3.5 1.4c1 1 1.5 2 1.5 3.3 0 1.3-.5 2.5-1.5 3.4a5 5 0 0 1-3.5 1.4Zm14.6 47.2v-41h7.7v6.6h.4c.8-2.2 2.1-4 4-5.2 1.9-1.3 4-2 6.4-2a33.6 33.6 0 0 1 3.4.3v7.6l-1.7-.3-2.4-.2c-2 0-3.6.4-5 1.2a8.9 8.9 0 0 0-4.8 8v25h-8Zm42.7.8a15.9 15.9 0 0 1-15-9.8 27 27 0 0 1-2.1-11.4c0-4.4.7-8.2 2.2-11.3a16 16 0 0 1 15-9.7c2.5 0 4.5.4 6 1.2a11 11 0 0 1 3.7 3c.8 1 1.5 2 2 3h.5v-20.3h8V341h-7.8v-6.4h-.7l-2 3a11.5 11.5 0 0 1-9.8 4.2Zm1.7-6.8c2.3 0 4.2-.6 5.8-1.8 1.6-1.2 2.8-3 3.6-5a21 21 0 0 0 1.3-7.7c0-2.8-.4-5.3-1.2-7.4a11 11 0 0 0-3.6-5 9.5 9.5 0 0 0-5.9-1.8c-2.4 0-4.4.6-6 1.9-1.6 1.2-2.8 3-3.6 5-.8 2.2-1.2 4.6-1.2 7.3 0 2.8.4 5.2 1.2 7.4.8 2.2 2 4 3.7 5.2a9.4 9.4 0 0 0 6 2Zm60.6-25-7.3 1.4c-.3-1-.7-1.8-1.4-2.7a7.1 7.1 0 0 0-2.6-2 9.5 9.5 0 0 0-4.1-.8 10 10 0 0 0-5.7 1.5c-1.5 1-2.3 2.3-2.3 3.9a4 4 0 0 0 1.6 3.3c1 .8 2.6 1.5 4.9 2l6.5 1.5c3.7.9 6.5 2.2 8.4 4a9.5 9.5 0 0 1 2.7 7c0 2.5-.7 4.7-2 6.6a14 14 0 0 1-6 4.5c-2.5 1-5.4 1.6-8.7 1.6-4.6 0-8.3-1-11.2-2.9-2.9-2-4.7-4.8-5.3-8.4l7.7-1.2c.5 2 1.4 3.6 3 4.6 1.4 1 3.4 1.5 5.8 1.5 2.6 0 4.7-.5 6.2-1.6 1.6-1.1 2.4-2.5 2.4-4 0-1.3-.5-2.4-1.5-3.3-1-.8-2.4-1.5-4.3-2l-7-1.5c-3.8-.8-6.6-2.2-8.4-4.1a10 10 0 0 1-2.7-7.2c0-2.4.7-4.6 2-6.4 1.4-1.8 3.2-3.2 5.6-4.2 2.4-1 5.1-1.5 8.2-1.5 4.4 0 7.9 1 10.4 2.8 2.6 2 4.2 4.5 5 7.7Zm46.6 31.8c-3.8 0-7.2-.9-10-2.6-3-1.8-5.1-4.2-6.7-7.4a24.5 24.5 0 0 1-2.4-11c0-4.3.8-8 2.4-11.2a17.7 17.7 0 0 1 16.7-10 17.7 17.7 0 0 1 16.7 10c1.6 3.2 2.4 6.9 2.4 11.1 0 4.3-.8 8-2.4 11.1a17.8 17.8 0 0 1-16.7 10Zm0-6.7c2.5 0 4.6-.6 6.2-2 1.6-1.2 2.8-3 3.6-5.2.8-2.2 1.2-4.6 1.2-7.2 0-2.6-.4-5-1.2-7.2-.8-2.2-2-4-3.6-5.3a9.5 9.5 0 0 0-6.2-2c-2.5 0-4.6.7-6.2 2a12 12 0 0 0-3.7 5.3c-.8 2.2-1.1 4.6-1.1 7.2 0 2.6.3 5 1.1 7.2s2 4 3.7 5.3c1.6 1.3 3.7 2 6.2 2Zm47.4-35v6.4h-23.1V300h23.1ZM373.8 341v-45.6c0-2.6.6-4.7 1.7-6.4 1.1-1.7 2.6-3 4.5-3.8 1.8-.9 3.8-1.3 6-1.3a18.2 18.2 0 0 1 6.6 1l-1.9 6.5-1.4-.3c-.6-.2-1.3-.3-2.1-.3-2 0-3.3.5-4.2 1.5-.8 1-1.2 2.3-1.2 4.1V341h-8ZM32.6 416v-6.8L59.8 371H32.5v-9.5h41.8v6.8l-27.2 38.2h27.3v9.5H32.6Zm69 .8c-4.2 0-7.8-.9-10.8-2.6-3-1.7-5.4-4.1-7-7.3a24.1 24.1 0 0 1-2.5-11.2c0-4.2.9-7.9 2.5-11 1.6-3.2 4-5.7 6.9-7.5 3-1.8 6.5-2.6 10.5-2.6 2.7 0 5.2.4 7.5 1.3a16.7 16.7 0 0 1 10.2 10.3c1 2.6 1.5 5.7 1.5 9.1v3.1H86v-7h23.8c0-1.6-.3-3-1-4.3a7.6 7.6 0 0 0-3-3c-1.2-.7-2.7-1-4.3-1-1.8 0-3.3.3-4.6 1.1a8.4 8.4 0 0 0-3.1 3.2 9 9 0 0 0-1.1 4.4v6.7c0 2 .3 3.7 1 5.2a8.2 8.2 0 0 0 3.3 3.4c1.4.8 3 1.2 5 1.2 1.2 0 2.3-.1 3.4-.5 1-.4 2-.9 2.7-1.6a7 7 0 0 0 1.7-2.6l10.5.7c-.6 2.5-1.7 4.7-3.3 6.6a16.4 16.4 0 0 1-6.3 4.4c-2.6 1-5.6 1.5-9 1.5Zm63.3-41.7L150.6 416h-12.8l-14.3-41h12l8.4 29.4h.5l8.4-29.3h12Zm23 41.7c-4.1 0-7.7-.9-10.8-2.6-3-1.7-5.3-4.1-7-7.3a24.1 24.1 0 0 1-2.4-11.2c0-4.2.8-7.9 2.4-11 1.7-3.2 4-5.7 7-7.5 3-1.8 6.4-2.6 10.4-2.6 2.7 0 5.2.4 7.6 1.3a16.7 16.7 0 0 1 10.2 10.3c1 2.6 1.5 5.7 1.5 9.1v3.1h-34.6v-7h23.9c0-1.6-.4-3-1-4.3a7.6 7.6 0 0 0-3-3c-1.3-.7-2.7-1-4.4-1-1.7 0-3.2.3-4.6 1.1a8.4 8.4 0 0 0-3 3.2 9 9 0 0 0-1.2 4.4v6.7c0 2 .4 3.7 1.1 5.2a8.2 8.2 0 0 0 3.2 3.4c1.4.8 3 1.2 5 1.2 1.2 0 2.4-.1 3.4-.5s2-.9 2.7-1.6a7 7 0 0 0 1.7-2.6l10.5.7c-.5 2.5-1.6 4.7-3.3 6.6a16.4 16.4 0 0 1-6.3 4.4c-2.6 1-5.5 1.5-9 1.5Zm37.6-24.5V416h-11.3v-41H225v7.3h.5c.9-2.4 2.4-4.3 4.5-5.6 2.1-1.4 4.7-2.1 7.8-2.1 2.8 0 5.3.6 7.4 1.8 2.1 1.3 3.7 3 5 5.3 1 2.3 1.7 5 1.7 8.3v26h-11.4v-24c0-2.5-.6-4.5-1.9-5.9a6.9 6.9 0 0 0-5.3-2.1c-1.6 0-3 .3-4 1-1.2.6-2.1 1.6-2.8 2.8a10 10 0 0 0-1 4.5ZM269 416l-11.1-41h11.4l6.4 27.6h.3l6.7-27.5h11.2l6.7 27.3h.4l6.2-27.3h11.5L307.5 416h-12l-7-25.7h-.6l-7 25.7h-12Zm67.4.8c-2.6 0-5-.5-7-1.4-2-1-3.7-2.3-4.8-4-1.2-1.9-1.8-4.1-1.8-6.8 0-2.3.4-4.2 1.2-5.8.9-1.5 2-2.7 3.5-3.7 1.4-1 3-1.6 4.9-2.1 1.8-.5 3.7-.8 5.8-1l5.7-.7c1.5-.2 2.5-.6 3.2-1 .6-.5 1-1.1 1-2v-.2c0-1.6-.6-3-1.6-3.9-1-.9-2.6-1.4-4.5-1.4a8 8 0 0 0-4.9 1.4c-1.2.9-2 2-2.4 3.4l-10.5-.9a14.3 14.3 0 0 1 9.2-10.6 26.2 26.2 0 0 1 15.2-.7c2 .5 4 1.3 5.5 2.4a12 12 0 0 1 5.3 10.6V416h-10.7v-5.7h-.4a11.6 11.6 0 0 1-6.6 5.7c-1.5.5-3.3.8-5.3.8Zm3.2-7.9c1.7 0 3.2-.3 4.5-1a7.8 7.8 0 0 0 3-2.7 7 7 0 0 0 1-3.8V397a6 6 0 0 1-1.4.7 26.5 26.5 0 0 1-4.4.9c-.7 0-1.4.2-2 .3a14 14 0 0 0-3.5 1c-1 .3-1.8 1-2.3 1.6-.6.7-.9 1.6-.9 2.7 0 1.5.6 2.7 1.7 3.5 1.2.8 2.6 1.2 4.3 1.2Zm47.1 7.9a21 21 0 0 1-10.8-2.7 18 18 0 0 1-7-7.4 24.1 24.1 0 0 1-2.3-11c0-4.2.8-7.9 2.4-11a18 18 0 0 1 7-7.5c3-1.7 6.5-2.6 10.7-2.6 3.5 0 6.6.6 9.3 1.9 2.7 1.3 4.8 3.1 6.4 5.5a16 16 0 0 1 2.6 8.2h-10.7c-.3-2-1.1-3.7-2.4-5a6.9 6.9 0 0 0-5-1.8c-1.8 0-3.4.5-4.7 1.4a9.2 9.2 0 0 0-3 4.2c-.7 1.8-1.1 4-1.1 6.5 0 2.7.4 4.9 1 6.7a9.2 9.2 0 0 0 3.1 4.2c1.3 1 2.9 1.4 4.6 1.4 1.3 0 2.5-.2 3.5-.8 1-.5 2-1.3 2.6-2.3.7-1 1.2-2.3 1.4-3.7h10.7c-.2 3.1-1 5.9-2.6 8.3a15.4 15.4 0 0 1-6.2 5.5 21 21 0 0 1-9.5 2Zm36.9-24.5V416H412v-54.5h11v20.8h.5c1-2.4 2.5-4.3 4.5-5.7 2-1.3 4.7-2 7.8-2 2.8 0 5.3.6 7.4 1.8 2.1 1.2 3.8 3 5 5.3 1.1 2.3 1.7 5 1.7 8.3v26h-11.3v-24c0-2.5-.7-4.5-2-6a7 7 0 0 0-5.3-2c-1.6 0-3 .3-4.1 1a7 7 0 0 0-2.8 2.8c-.7 1.3-1 2.8-1 4.5Zm57.2-17.2v8.5h-24.6v-8.5h24.6Zm-19-9.8H473v38.1c0 1 .2 1.9.5 2.5.3.5.7 1 1.3 1.2.6.2 1.3.3 2 .3a9.7 9.7 0 0 0 2.9-.3l1.7 8.4a31.7 31.7 0 0 1-6.1 1c-2.7.2-5.1-.2-7.2-1a10 10 0 0 1-4.8-4c-1.1-1.7-1.7-3.9-1.6-6.6v-39.6Z"/><path fill="#3461AE" d="M169 252.3c5.6-10.7 25.4-30.4 39.7-40.2.2-7.1 16.8-42.3 29-49.2 0 0 24-37.7 33-38.8 3.5-16.4 18.5-62.2 57-32 0 0 16-.4 16 .8.4 2.7-16.3 9.2-16.3 9.2s-10.2 23.6-5 39c4.7 14.3-4.9 52.7-52.8 70.5 0 0 30.7 28.2 28 44.8-6-2.8-5.1-2.8-11-5.1-4.9-9-10-17.8-15.3-26.5-2 .7-6.8 1.3-8-1.2-2.3-4.5-2.5-7.8-1.4-10.8-5.1-1-11.5.2-19.3.7-14.2 8.5-29.2 15.2-29.2 15.2S193 249 188.4 249c-4.8 0-8.3 5.4-9.9 6.5-2 1.5 2-4.7.7-4.7s-8.3 4.6-8.3 4.6l3.5-5.4s-6 3.4-5.4 2.2Z"/></svg>