<svg xmlns="http://www.w3.org/2000/svg" fill-rule="evenodd" viewBox="0 0 312 170">
	<path
		d="M192 132c12 18 32 30 55 30 35 0 65-29 65-65 0-29-19-53-45-62-30-20-81-42-96-33-9 5-13 17-9 27h-12c4-10-1-22-10-27-15-9-65 13-96 33C19 44 0 68 0 97c0 36 29 65 65 65 23 0 43-12 55-30h72zm-36-50c9 0 17 8 17 18 0 9-8 17-17 17-10 0-18-8-18-17 0-10 8-18 18-18zM65 44c29 0 53 24 53 53s-24 53-53 53-53-24-53-53 24-53 53-53zm182 0c-30 0-53 24-53 53s23 53 53 53c29 0 52-24 52-53s-23-53-52-53z"
		style="fill:#000" />
</svg>