<svg xmlns="http://www.w3.org/2000/svg" viewBox="0 0 100 100"><path d="M95.79 79.65C93.12 74.95 83.59 66.3 76.73 62c-.1-3.14-8.09-18.6-13.93-21.61 0 0-11.54-16.57-15.84-17.04-1.7-7.2-8.95-27.34-27.45-14.1 0 0-7.65-.15-7.72.4-.15 1.17 7.85 4.02 7.85 4.02s4.92 10.38 2.46 17.12c-2.3 6.3 2.32 23.15 25.34 30.97 0 0-14.76 12.4-13.44 19.69-2.82 4.34-4.75 7.75-4.05 8.04 1.21.5 1.72 6.56 1.71 6.2-.02-2.3 2.08-6.82 4.9-11.85.97 1 3.76 1.79 4.94-2.56 0 0-1.5-.39-1.92-1.47-.08-.23-.2-.42-.33-.6a305.6 305.6 0 0 1 7.4-11.62c.93.3 3.24.56 3.86-.56 1.09-1.95 1.16-3.4.64-4.73 2.45-.4 5.51.11 9.26.31 6.83 3.73 14.07 6.67 14.07 6.67s9.78 8.98 12.04 8.98c2.25 0 3.98 2.36 4.71 2.84.97.65-.92-2.08-.3-2.08s3.99 2.03 3.99 2.03l-1.7-2.38s2.88 1.53 2.57.98z"/></svg>