<svg xmlns="http://www.w3.org/2000/svg" viewBox="0 0 1024 1024"><path d="M945.66 726.63V330.31l-.02-.72c-.8-22.87-17.29-43.58-40.45-47.06-7.49-1.12-15.05-.79-22.6-.79h-88.62c-12.4-25.37-24.54-50.91-37.41-76.04-8.05-15.72-24.3-25.3-41.83-25.63-2.02-.03-4.05 0-6.08 0h-218.1c-15.04 0-29.08.14-41.85 10.09-7.25 5.64-11.65 12.93-15.6 20.95l-11.52 23.43-23.22 47.2h-76.7v-15.82c0-5.07.1-10.15 0-15.22-.19-9.26-5.36-15.91-13.75-18.02a23.84 23.84 0 0 0-3.61-.61H199.99c-5.83 0-11.47.99-15.67 5.55-4.93 5.37-4.66 11.86-4.66 18.53v25.59h-44.97c-2.47 0-4.95-.04-7.42 0a49.33 49.33 0 0 0-45.44 31.52c-3.62 9.19-3.17 18.77-3.17 28.4V768.3c0 8.33-.02 16.66 0 24.99.06 27.44 20.67 50 48.6 50.45 12.76.21 25.54 0 38.31 0h718.65c4.2 0 8.4.07 12.6 0a49.32 49.32 0 0 0 48.84-49.38c.14-22.57 0-45.16 0-67.73zM833.82 542.81a254.2 254.2 0 0 1-3.11 37.87c-7.26 47.47-30.1 92.26-63.29 126.84-32.92 34.3-76.59 58.64-123.24 68a241.7 241.7 0 0 1-146.84-16.65c-43.26-19.46-80.17-52.83-104.72-93.34-25.41-41.95-37.36-92.08-33.4-140.98a240.55 240.55 0 0 1 54.35-133.86c30.14-36.6 71.9-63.6 117.46-76.58 47.51-13.54 99.79-11.92 146.18 5.2a241.77 241.77 0 0 1 113.06 86.38c28.43 39.7 43.39 88.28 43.55 137.01v.11z"/><path d="M768.49 542.64v.26a191.8 191.8 0 0 1-2.39 28.01c-10.65 69.11-66.6 126.98-135.08 140.61A175.91 175.91 0 0 1 524 699.21c-31.15-14.04-57.73-38.25-75.42-67.41-18.3-30.18-27.04-66.4-24.26-101.61a175.06 175.06 0 0 1 39.46-97.68c45.18-55.14 124.26-76.59 191.12-51.76a176.09 176.09 0 0 1 81.95 62.57c20.7 28.72 31.46 64.04 31.64 99.32z"/></svg>